<svg width="505" height="319" viewBox="0 0 505 319" fill="none" xmlns="http://www.w3.org/2000/svg">
<path d="M61.7656 184.609C60.5156 185.641 59.0938 186.719 57.5 187.844C55.9375 188.938 54.2656 189.938 52.4844 190.844C50.7031 191.781 48.8281 192.547 46.8594 193.141C44.9219 193.734 42.9531 194.031 40.9531 194.031C40.3594 194.031 39.7656 193.953 39.1719 193.797C38.5781 193.641 38.0469 193.359 37.5781 192.953C37.1094 192.578 36.7188 192.062 36.4062 191.406C36.125 190.75 36 189.922 36.0312 188.922C36.0312 187.766 36.0938 184.859 36.2188 180.203C36.25 178.234 36.2969 175.781 36.3594 172.844C36.4531 169.906 36.5469 166.359 36.6406 162.203C36.7656 158.047 36.9062 153.219 37.0625 147.719C37.2188 142.188 37.3906 135.859 37.5781 128.734C36.7656 128.828 35.9688 128.891 35.1875 128.922C34.4062 128.922 33.6094 128.922 32.7969 128.922C31.6094 128.922 30.2656 128.891 28.7656 128.828C27.2969 128.766 25.7656 128.641 24.1719 128.453L36.0312 120.953C38.4688 121.297 40.7656 121.531 42.9219 121.656C45.0781 121.781 46.8594 121.844 48.2656 121.844C49.8281 121.844 51.3281 121.797 52.7656 121.703C54.2344 121.578 55.6719 121.453 57.0781 121.328C58.4844 121.172 59.875 121.047 61.25 120.953C62.625 120.828 64.0156 120.766 65.4219 120.766C68.1719 120.766 70.8125 121.078 73.3438 121.703C75.875 122.328 78.0938 123.312 80 124.656C81.9062 125.969 83.4219 127.688 84.5469 129.812C85.7031 131.938 86.2812 134.5 86.2812 137.5C86.2812 139.094 86.0156 140.734 85.4844 142.422C84.9531 144.078 84.0781 145.75 82.8594 147.438C81.6406 149.094 80.0156 150.75 77.9844 152.406C75.9844 154.031 73.5 155.594 70.5312 157.094C73.625 159.969 76.4375 162.547 78.9688 164.828C81.5312 167.109 83.8438 169.141 85.9062 170.922C87.9688 172.703 89.7969 174.25 91.3906 175.562C92.9844 176.844 94.3906 177.953 95.6094 178.891C98.4219 181.078 100.594 182.578 102.125 183.391C102.906 183.766 103.734 184.094 104.609 184.375C105.359 184.625 106.203 184.844 107.141 185.031C108.109 185.219 109.125 185.312 110.188 185.312C110.844 185.312 111.484 185.266 112.109 185.172C112.734 185.047 113.359 184.859 113.984 184.609C112.484 185.766 111.016 186.859 109.578 187.891C108.141 188.922 106.688 189.812 105.219 190.562C103.781 191.344 102.312 191.953 100.812 192.391C99.3438 192.859 97.8281 193.094 96.2656 193.094C95.3906 193.094 94.5469 193 93.7344 192.812C92.9219 192.656 92.0938 192.391 91.25 192.016C90.4062 191.641 89.5469 191.156 88.6719 190.562C87.8281 189.969 86.9219 189.234 85.9531 188.359C84.6719 187.297 82.7812 185.656 80.2812 183.438C79.2188 182.5 77.9688 181.375 76.5312 180.062C75.0938 178.75 73.4375 177.234 71.5625 175.516C69.6875 173.797 67.5625 171.859 65.1875 169.703C62.8438 167.516 60.2344 165.062 57.3594 162.344C59.6094 161.5 61.7344 160.484 63.7344 159.297C65.7344 158.109 67.4688 156.75 68.9375 155.219C70.4375 153.688 71.6094 151.984 72.4531 150.109C73.3281 148.203 73.7656 146.109 73.7656 143.828C73.7656 141.078 73.2031 138.672 72.0781 136.609C70.9531 134.547 69.4844 132.828 67.6719 131.453C65.8906 130.078 63.8594 129.047 61.5781 128.359C59.2969 127.672 57 127.328 54.6875 127.328C52.8125 127.328 51.0156 127.422 49.2969 127.609L47.4688 184.609C48.1875 185.141 49.0469 185.516 50.0469 185.734C51.0469 185.953 52.0781 186.062 53.1406 186.062C54.2031 186.062 55.25 186 56.2812 185.875C57.3125 185.719 58.2344 185.547 59.0469 185.359C60.0156 185.141 60.9219 184.891 61.7656 184.609ZM165.969 131.453C166.719 130.859 167.062 130.297 167 129.766C166.938 129.234 166.719 128.766 166.344 128.359C165.906 127.891 165.281 127.453 164.469 127.047C162.969 126.328 161.031 125.812 158.656 125.5C156.281 125.188 153.766 125.031 151.109 125.031C147.328 125.031 143.75 125.375 140.375 126.062C137.031 126.75 134.047 128.016 131.422 129.859C128.828 131.672 126.688 134.188 125 137.406C123.312 140.594 122.25 144.688 121.812 149.688C123.75 149.75 125.656 149.781 127.531 149.781C129.438 149.781 131.312 149.781 133.156 149.781C135.375 149.781 137.844 149.734 140.562 149.641C143.312 149.516 146.109 149.391 148.953 149.266C151.828 149.109 154.641 148.953 157.391 148.797C160.141 148.641 162.625 148.516 164.844 148.422C167.062 148.297 168.906 148.234 170.375 148.234C171.875 148.234 172.781 148.297 173.094 148.422C173.469 148.609 173.531 148.922 173.281 149.359C173.062 149.766 172.609 150.25 171.922 150.812C171.266 151.344 170.438 151.922 169.438 152.547C168.469 153.172 167.438 153.781 166.344 154.375C165.25 154.938 164.141 155.469 163.016 155.969C161.922 156.438 160.922 156.812 160.016 157.094C160.734 155.875 160.859 155.016 160.391 154.516C159.953 153.984 158.719 153.719 156.688 153.719C155.781 153.719 154.953 153.734 154.203 153.766C153.453 153.797 152.594 153.859 151.625 153.953C150.656 154.016 149.453 154.109 148.016 154.234C146.578 154.328 144.719 154.469 142.438 154.656C140.156 154.812 137.328 155.016 133.953 155.266C130.578 155.484 126.469 155.734 121.625 156.016C121.781 161.078 122.656 165.375 124.25 168.906C125.875 172.438 128.078 175.344 130.859 177.625C133.641 179.906 136.953 181.656 140.797 182.875C144.672 184.062 148.938 184.844 153.594 185.219C156.281 185.344 158.938 185.219 161.562 184.844C162.688 184.688 163.859 184.469 165.078 184.188C166.328 183.906 167.562 183.547 168.781 183.109C170.031 182.641 171.25 182.078 172.438 181.422C173.625 180.766 174.734 179.984 175.766 179.078C173.453 181.047 171.031 182.844 168.5 184.469C166 186.062 163.406 187.453 160.719 188.641C158.062 189.797 155.359 190.688 152.609 191.312C149.859 191.969 147.125 192.297 144.406 192.297C142.031 192.297 139.516 192.094 136.859 191.688C134.234 191.312 131.625 190.672 129.031 189.766C126.469 188.828 124.016 187.609 121.672 186.109C119.359 184.578 117.344 182.688 115.625 180.438C113.938 178.156 112.625 175.484 111.688 172.422C110.75 169.328 110.391 165.781 110.609 161.781C110.828 157.125 111.703 152.828 113.234 148.891C114.797 144.953 116.828 141.406 119.328 138.25C121.828 135.062 124.719 132.266 128 129.859C131.281 127.422 134.781 125.391 138.5 123.766C142.25 122.141 146.141 120.922 150.172 120.109C154.203 119.266 158.203 118.844 162.172 118.844C163.922 118.844 165.531 118.922 167 119.078C168.469 119.234 169.781 119.422 170.938 119.641C172.125 119.859 173.141 120.109 173.984 120.391C174.828 120.641 175.484 120.875 175.953 121.094C177.359 121.719 178.062 122.453 178.062 123.297C178.062 123.797 177.797 124.328 177.266 124.891C176.766 125.453 176.109 126.016 175.297 126.578C174.516 127.141 173.641 127.688 172.672 128.219C171.734 128.719 170.812 129.188 169.906 129.625C169.031 130.062 168.234 130.438 167.516 130.75C166.797 131.062 166.281 131.297 165.969 131.453ZM263.188 119.172C262.75 119.391 262.406 119.688 262.156 120.062C261.938 120.438 261.766 120.812 261.641 121.188C261.516 121.625 261.422 122.094 261.359 122.594C261.328 122.938 261.281 123.75 261.219 125.031C261.188 126.312 261.125 127.938 261.031 129.906C260.969 131.844 260.891 134.031 260.797 136.469C260.734 138.875 260.656 141.375 260.562 143.969C260.469 146.562 260.375 149.156 260.281 151.75C260.219 154.344 260.141 156.781 260.047 159.062C259.984 161.344 259.922 163.391 259.859 165.203C259.828 166.984 259.797 168.375 259.766 169.375C259.703 171.375 259.609 173.016 259.484 174.297C259.359 175.547 259.188 176.594 258.969 177.438C258.75 178.281 258.484 179 258.172 179.594C257.859 180.188 257.516 180.812 257.141 181.469C256.859 182.062 256.438 182.891 255.875 183.953C255.375 184.859 254.688 186.078 253.812 187.609C252.969 189.109 251.875 191 250.531 193.281C250.062 191.906 249.312 190.469 248.281 188.969C247.281 187.469 246.25 186.062 245.188 184.75C243.938 183.25 242.609 181.766 241.203 180.297C239.547 178.641 236.969 176.094 233.469 172.656C231.969 171.188 230.203 169.469 228.172 167.5C226.141 165.5 223.781 163.188 221.094 160.562C218.406 157.938 215.375 154.969 212 151.656C208.625 148.344 204.859 144.641 200.703 140.547C200.641 144.359 200.578 147.797 200.516 150.859C200.484 153.922 200.453 156.672 200.422 159.109C200.391 161.516 200.359 163.625 200.328 165.438C200.297 167.219 200.281 168.766 200.281 170.078C200.25 173.141 200.234 175.328 200.234 176.641C200.203 177.641 200.297 178.562 200.516 179.406C200.734 180.219 201.078 180.938 201.547 181.562C202.016 182.156 202.625 182.625 203.375 182.969C204.125 183.312 205.031 183.484 206.094 183.484C207.156 183.484 208.375 183.312 209.75 182.969C211.125 182.594 212.688 182 214.438 181.188C212.906 182.688 211.453 183.984 210.078 185.078C208.734 186.172 207.453 187.109 206.234 187.891C205.047 188.672 203.938 189.312 202.906 189.812C201.906 190.312 201 190.703 200.188 190.984C198.25 191.672 196.562 191.953 195.125 191.828C193.938 191.578 193.156 191.109 192.781 190.422C192.438 189.734 192.266 188.734 192.266 187.422C192.266 177.578 192.438 167.812 192.781 158.125C193.125 148.438 193.297 138.781 193.297 129.156C193.297 127.688 193.297 126.469 193.297 125.5C193.297 124.531 193.266 123.828 193.203 123.391C193.453 122.578 193.969 121.656 194.75 120.625C195.406 119.719 196.344 118.641 197.562 117.391C198.812 116.141 200.5 114.719 202.625 113.125C202.375 113.781 202.203 114.422 202.109 115.047C202.016 115.672 201.969 116.266 201.969 116.828C201.969 117.734 202.047 118.547 202.203 119.266C202.391 119.953 202.609 120.547 202.859 121.047C203.141 121.609 203.453 122.125 203.797 122.594C204.859 123.906 206.234 125.438 207.922 127.188C209.609 128.938 211.562 130.922 213.781 133.141C216.031 135.328 218.5 137.75 221.188 140.406C223.875 143.062 226.75 145.969 229.812 149.125C232 151.188 234.312 153.422 236.75 155.828C238.844 157.891 241.219 160.312 243.875 163.094C246.531 165.844 249.266 168.797 252.078 171.953C252.141 166.203 252.188 161.234 252.219 157.047C252.25 152.859 252.266 149.219 252.266 146.125C252.266 143.281 252.25 140.938 252.219 139.094C252.219 137.219 252.203 135.719 252.172 134.594C252.141 133.312 252.109 132.297 252.078 131.547C252.078 130.484 251.922 129.594 251.609 128.875C251.297 128.156 250.891 127.594 250.391 127.188C249.922 126.781 249.375 126.5 248.75 126.344C248.125 126.156 247.5 126.062 246.875 126.062C246.156 126.062 245.469 126.141 244.812 126.297C244.156 126.453 243.656 126.656 243.312 126.906C244.625 125.781 245.922 124.734 247.203 123.766C248.484 122.766 249.781 121.906 251.094 121.188C252.438 120.469 253.828 119.906 255.266 119.5C256.734 119.062 258.297 118.844 259.953 118.844C261.047 118.844 262.125 118.953 263.188 119.172ZM322.906 184.609C321.656 185.641 320.234 186.719 318.641 187.844C317.078 188.938 315.406 189.938 313.625 190.844C311.844 191.781 309.969 192.547 308 193.141C306.062 193.734 304.094 194.031 302.094 194.031C301.469 194.031 300.859 193.953 300.266 193.797C299.672 193.641 299.141 193.359 298.672 192.953C298.203 192.578 297.828 192.062 297.547 191.406C297.266 190.75 297.141 189.922 297.172 188.922C297.172 187.734 297.234 184.797 297.359 180.109C297.391 178.109 297.438 175.625 297.5 172.656C297.594 169.656 297.688 166.047 297.781 161.828C297.906 157.609 298.047 152.703 298.203 147.109C298.359 141.484 298.531 135.047 298.719 127.797C295.781 128.141 292.859 128.422 289.953 128.641C287.078 128.828 284.172 128.922 281.234 128.922C278.547 128.922 276.312 128.766 274.531 128.453C272.75 128.141 271.5 127.594 270.781 126.812C270.375 126.125 270.5 125.266 271.156 124.234C271.438 123.797 271.844 123.297 272.375 122.734C272.906 122.172 273.625 121.547 274.531 120.859C275.469 120.172 276.609 119.422 277.953 118.609C279.297 117.797 280.906 116.922 282.781 115.984C282.281 116.609 282.047 117.141 282.078 117.578C282.109 117.984 282.234 118.328 282.453 118.609C282.703 118.953 283.062 119.234 283.531 119.453C284.438 119.797 285.812 120.109 287.656 120.391C289.531 120.641 292.125 120.766 295.438 120.766C299.062 120.766 302.625 120.625 306.125 120.344C309.656 120.062 313.125 119.75 316.531 119.406C319.969 119.031 323.375 118.703 326.75 118.422C330.156 118.141 333.547 118 336.922 118C337.828 118 338.625 118.031 339.312 118.094C340.031 118.125 340.578 118.219 340.953 118.375C341.547 118.594 341.75 118.953 341.562 119.453C341.375 119.922 340.922 120.469 340.203 121.094C339.516 121.688 338.656 122.328 337.625 123.016C336.594 123.672 335.531 124.297 334.438 124.891C333.344 125.484 332.297 126.016 331.297 126.484C330.297 126.922 329.516 127.234 328.953 127.422C329.234 126.453 329.047 125.781 328.391 125.406C327.734 125 326.359 124.875 324.266 125.031C319.578 125.406 314.969 125.875 310.438 126.438L308.609 184.609C309.328 185.141 310.188 185.516 311.188 185.734C312.188 185.953 313.219 186.062 314.281 186.062C315.344 186.062 316.391 186 317.422 185.875C318.453 185.719 319.375 185.547 320.188 185.359C321.156 185.141 322.062 184.891 322.906 184.609ZM398.984 158.594C398.359 159.188 397.688 159.797 396.969 160.422C396.25 161.016 395.484 161.625 394.672 162.25C395.453 164.156 396.219 165.984 396.969 167.734C397.75 169.453 398.469 171.047 399.125 172.516C399.812 173.953 400.453 175.219 401.047 176.312C401.641 177.406 402.172 178.281 402.641 178.938C403.297 179.844 404.031 180.641 404.844 181.328C405.562 181.922 406.391 182.469 407.328 182.969C408.297 183.438 409.359 183.672 410.516 183.672C411.672 183.672 412.922 183.281 414.266 182.5C413.141 183.688 411.938 184.859 410.656 186.016C409.406 187.141 408.078 188.156 406.672 189.062C405.297 189.969 403.859 190.703 402.359 191.266C400.891 191.828 399.375 192.109 397.812 192.109C396.625 192.109 395.531 191.75 394.531 191.031C393.531 190.344 392.547 189.109 391.578 187.328C391.234 186.766 390.781 185.875 390.219 184.656C389.656 183.406 389 181.938 388.25 180.25C387.531 178.531 386.734 176.641 385.859 174.578C384.984 172.484 384.078 170.297 383.141 168.016C381.172 168.609 379.031 169.078 376.719 169.422C374.438 169.766 371.969 169.938 369.312 169.938H355.484L351.641 178.938C351.422 179.531 351.266 180.141 351.172 180.766C351.109 181.359 351.172 181.906 351.359 182.406C351.547 182.906 351.906 183.328 352.438 183.672C353 183.984 353.828 184.141 354.922 184.141C355.547 184.141 356.25 184.078 357.031 183.953C357.812 183.828 358.703 183.641 359.703 183.391C357.953 185.047 356.438 186.453 355.156 187.609C353.875 188.766 352.656 189.703 351.5 190.422C350.344 191.141 349.172 191.656 347.984 191.969C346.797 192.312 345.438 192.484 343.906 192.484C343 192.484 342.344 192.266 341.938 191.828C341.562 191.391 341.375 190.781 341.375 190C341.375 189 341.625 187.781 342.125 186.344C342.656 184.906 343.312 183.312 344.094 181.562C344.75 179.969 346.031 177.016 347.938 172.703C348.75 170.859 349.734 168.625 350.891 166C352.047 163.375 353.422 160.281 355.016 156.719C356.609 153.125 358.422 149 360.453 144.344C362.516 139.688 364.859 134.422 367.484 128.547L369.688 126.719C369.688 125.75 369.766 124.906 369.922 124.188C370.078 123.469 370.297 122.844 370.578 122.312C370.891 121.75 371.25 121.25 371.656 120.812C372.062 120.375 372.5 119.953 372.969 119.547C373.531 119.078 374.203 118.531 374.984 117.906C376.297 116.844 378.219 115.25 380.75 113.125C380.375 113.844 380.109 114.656 379.953 115.562C379.828 116.438 379.766 117.312 379.766 118.188C379.766 119.094 379.812 119.969 379.906 120.812C380 121.625 380.109 122.344 380.234 122.969C380.359 123.719 380.531 124.406 380.75 125.031C381.094 126.156 381.688 127.938 382.531 130.375C383.375 132.812 384.375 135.625 385.531 138.812C386.719 141.969 388 145.344 389.375 148.938C390.75 152.531 392.125 156.047 393.5 159.484C394.406 159.359 395.203 159.234 395.891 159.109C396.578 158.984 397.156 158.891 397.625 158.828C398.156 158.734 398.609 158.656 398.984 158.594ZM371.047 135.672C368.828 140.516 366.734 145.062 364.766 149.312C362.797 153.531 360.922 157.719 359.141 161.875C363.328 161.781 367.172 161.641 370.672 161.453C374.172 161.266 377.344 161.047 380.188 160.797C379.188 158.359 378.219 155.938 377.281 153.531C376.375 151.094 375.516 148.781 374.703 146.594C373.922 144.406 373.203 142.375 372.547 140.5C371.922 138.625 371.422 137.016 371.047 135.672ZM473.141 182.125C469.672 184.312 466.281 186.078 462.969 187.422C459.656 188.734 456.328 189.734 452.984 190.422C449.641 191.141 446.234 191.578 442.766 191.734C439.297 191.891 435.688 191.891 431.938 191.734C430.719 191.703 429.641 191.656 428.703 191.594C427.766 191.531 426.984 191.312 426.359 190.938C425.766 190.594 425.312 190.016 425 189.203C424.688 188.391 424.531 187.219 424.531 185.688C424.531 184.906 424.531 183.547 424.531 181.609C424.562 179.672 424.578 177.375 424.578 174.719C424.609 172.031 424.641 169.109 424.672 165.953C424.703 162.766 424.734 159.547 424.766 156.297C424.797 153.047 424.828 149.875 424.859 146.781C424.891 143.656 424.922 140.828 424.953 138.297C424.984 135.766 425.016 133.641 425.047 131.922C425.078 130.172 425.109 129.047 425.141 128.547C425.172 127.984 425.047 127.516 424.766 127.141C424.516 126.766 424.156 126.469 423.688 126.25C423.25 126 422.719 125.828 422.094 125.734C421.469 125.641 420.812 125.594 420.125 125.594C419.031 125.594 417.844 125.703 416.562 125.922C415.312 126.109 414.125 126.344 413 126.625C414.594 125.594 416.156 124.641 417.688 123.766C419.25 122.859 420.812 122.094 422.375 121.469C423.938 120.812 425.531 120.297 427.156 119.922C428.781 119.547 430.469 119.359 432.219 119.359C432.906 119.359 433.562 119.406 434.188 119.5C434.812 119.562 435.359 119.688 435.828 119.875C436.297 120.031 436.672 120.266 436.953 120.578C437.234 120.859 437.359 121.219 437.328 121.656C437.328 122.844 437.297 125.812 437.234 130.562C437.203 132.594 437.172 135.109 437.141 138.109C437.109 141.109 437.062 144.734 437 148.984C436.969 153.234 436.922 158.188 436.859 163.844C436.828 169.469 436.781 175.922 436.719 183.203C439.656 183.547 442.422 183.797 445.016 183.953C447.609 184.078 450.062 184.141 452.375 184.141C455.625 184.141 458.531 184.047 461.094 183.859C463.656 183.641 465.828 183.406 467.609 183.156C469.703 182.844 471.547 182.5 473.141 182.125Z" fill="url(#paint0_angular_20_188)"/>
<path d="M147.08 274.768C146.312 274.768 145.672 274.416 145.16 273.712C144.648 272.944 144.232 272.016 143.912 270.928C143.656 269.776 143.464 268.592 143.336 267.376C143.272 266.096 143.24 264.976 143.24 264.016L143.912 227.728C143.912 226.128 144.104 224.848 144.488 223.888C144.936 222.864 145.48 222.096 146.12 221.584C146.76 221.072 147.432 220.72 148.136 220.528C148.904 220.336 149.64 220.24 150.344 220.24H156.776C159.464 220.24 162.376 220.912 165.512 222.256C168.712 223.6 171.656 225.52 174.344 228.016C177.096 230.512 179.368 233.552 181.16 237.136C183.016 240.656 183.944 244.592 183.944 248.944C183.944 253.296 183.016 257.072 181.16 260.272C179.304 263.472 177 266.128 174.248 268.24C171.56 270.288 168.616 271.824 165.416 272.848C162.28 273.808 159.4 274.288 156.776 274.288C155.944 274.288 154.792 274.256 153.32 274.192C151.848 274.128 150.6 274 149.576 273.808C149 274.064 148.456 274.288 147.944 274.48C147.496 274.672 147.208 274.768 147.08 274.768ZM150.632 265.36C150.76 265.488 151.048 265.584 151.496 265.648C152.008 265.648 152.552 265.648 153.128 265.648H158.312C160.232 265.648 162.312 265.36 164.552 264.784C166.792 264.208 168.84 263.312 170.696 262.096C172.616 260.88 174.184 259.312 175.4 257.392C176.68 255.408 177.32 253.008 177.32 250.192C177.32 247.12 176.712 244.272 175.496 241.648C174.344 238.96 172.84 236.624 170.984 234.64C169.128 232.656 167.016 231.088 164.648 229.936C162.344 228.784 160.008 228.208 157.64 228.208C157.256 228.208 156.744 228.208 156.104 228.208C155.464 228.208 154.792 228.24 154.088 228.304C153.384 228.304 152.68 228.336 151.976 228.4C151.336 228.464 150.792 228.528 150.344 228.592C150.088 229.936 149.896 231.376 149.768 232.912C149.704 234.448 149.672 235.92 149.672 237.328V244.816C149.672 246.48 149.672 248.24 149.672 250.096C149.736 251.952 149.8 253.808 149.864 255.664C149.928 257.456 150.024 259.216 150.152 260.944C150.28 262.608 150.44 264.08 150.632 265.36ZM190.34 271.024C190.34 269.936 190.468 268.912 190.724 267.952C191.044 266.928 191.428 266 191.876 265.168C192.388 263.76 192.932 262.16 193.508 260.368C194.084 258.576 194.788 256.528 195.62 254.224C195.556 254.032 195.524 253.808 195.524 253.552C195.524 253.296 195.524 253.104 195.524 252.976C195.524 251.696 195.684 250.64 196.004 249.808C196.324 248.912 196.996 248.144 198.02 247.504L206.372 227.92C206.756 227.152 207.172 226.288 207.62 225.328C208.068 224.368 208.548 223.504 209.06 222.736C209.572 221.904 210.116 221.2 210.692 220.624C211.268 220.048 211.876 219.76 212.516 219.76C214.308 219.76 215.94 220.784 217.412 222.832C218.884 224.816 220.228 227.344 221.444 230.416C222.724 233.488 223.876 236.88 224.9 240.592C225.924 244.304 226.852 247.856 227.684 251.248C228.58 254.576 229.38 257.52 230.084 260.08C230.852 262.64 231.588 264.336 232.292 265.168C232.74 265.744 233.124 266.224 233.444 266.608C233.764 266.928 234.02 267.28 234.212 267.664C234.404 267.984 234.532 268.4 234.596 268.912C234.724 269.36 234.788 269.968 234.788 270.736C234.788 271.76 234.628 272.56 234.308 273.136C233.988 273.648 233.604 274.032 233.156 274.288C232.772 274.608 232.324 274.8 231.812 274.864C231.364 274.928 230.98 274.96 230.66 274.96C230.02 274.96 229.412 274.608 228.836 273.904C228.26 273.136 227.716 272.24 227.204 271.216C226.756 270.192 226.34 269.104 225.956 267.952C225.636 266.8 225.38 265.808 225.188 264.976C224.676 263.184 224.228 261.712 223.844 260.56C223.524 259.408 223.172 258.512 222.788 257.872C222.468 257.232 222.052 256.784 221.54 256.528C221.092 256.272 220.452 256.144 219.62 256.144H203.492C203.044 256.144 202.66 256.176 202.34 256.24C202.084 256.304 201.828 256.496 201.572 256.816C201.38 257.072 201.188 257.456 200.996 257.968C200.804 258.48 200.548 259.184 200.228 260.08L197.252 268.624C197.124 269.904 196.9 270.928 196.58 271.696C196.26 272.464 195.876 273.072 195.428 273.52C195.044 273.904 194.66 274.16 194.276 274.288C193.892 274.48 193.636 274.576 193.508 274.576C192.484 274.576 191.684 274.352 191.108 273.904C190.596 273.392 190.34 272.432 190.34 271.024ZM204.836 247.216C206.692 247.28 208.356 247.344 209.828 247.408C211.3 247.408 212.868 247.408 214.532 247.408C215.3 247.408 216.1 247.408 216.932 247.408C217.764 247.408 218.66 247.376 219.62 247.312C219.172 246.032 218.596 244.56 217.892 242.896C217.252 241.168 216.516 239.44 215.684 237.712L212.132 230.128C211.812 230.32 211.332 231.088 210.692 232.432C210.052 233.776 209.348 235.344 208.58 237.136C207.876 238.928 207.172 240.752 206.468 242.608C205.764 244.464 205.22 246 204.836 247.216ZM250.234 222.256C249.786 222.256 249.274 222.192 248.698 222.064C248.122 221.936 247.578 221.712 247.066 221.392C246.554 221.008 246.106 220.528 245.722 219.952C245.402 219.312 245.242 218.48 245.242 217.456C245.242 216.752 245.37 216.048 245.626 215.344C245.946 214.64 246.33 214.032 246.778 213.52C247.226 212.944 247.706 212.496 248.218 212.176C248.794 211.792 249.338 211.6 249.85 211.6C250.874 211.6 251.866 211.952 252.826 212.656C253.85 213.36 254.362 214.736 254.362 216.784C254.362 220.432 252.986 222.256 250.234 222.256ZM244.858 270.544C244.794 270.224 244.698 269.456 244.57 268.24C244.506 266.96 244.474 264.688 244.474 261.424C244.474 260.144 244.474 258.512 244.474 256.528C244.474 254.48 244.506 252.368 244.57 250.192C244.698 247.952 244.858 245.712 245.05 243.472C245.306 241.232 245.594 239.216 245.914 237.424C246.298 235.632 246.778 234.192 247.354 233.104C247.93 231.952 248.634 231.376 249.466 231.376C250.49 231.376 251.098 231.824 251.29 232.72C251.546 233.616 251.674 234.672 251.674 235.888C251.546 238.576 251.354 241.616 251.098 245.008C250.842 248.336 250.714 251.6 250.714 254.8C250.714 257.168 250.906 259.792 251.29 262.672C251.674 265.488 251.866 268.016 251.866 270.256C251.866 271.792 251.546 272.976 250.906 273.808C250.266 274.576 249.594 274.96 248.89 274.96C247.802 274.96 246.938 274.64 246.298 274C245.658 273.36 245.178 272.208 244.858 270.544Z" fill="url(#paint1_linear_20_188)" fill-opacity="0.725631"/>
<path d="M26.5 259C23.9294 255.14 16.4596 219.829 14.9516 215.504C14.1396 213.176 13.7642 211.038 13.0562 208.638C12.3686 206.307 13.3223 202.031 12.1584 200.211C11.1009 198.557 11.46 196.445 11.46 194.385C11.46 191.23 9.6644 189.213 9.6644 186.322C9.6644 180.921 8.83341 175.807 7.91863 170.56C7.18051 166.326 6.0731 163.433 6.0731 158.804C6.0731 153.671 6.0731 148.539 6.0731 143.406C6.0731 138.942 5.90862 134.445 6.0731 129.985C6.23391 125.625 10.2555 122.41 11.6596 118.749C12.3832 116.862 14.41 118.073 15.0513 115.732C15.5723 113.831 18.5854 112.15 19.9894 110.686C21.368 109.248 22.6505 109.591 24.0296 107.513C25.3602 105.509 29.5212 103.57 31.711 102.831C35.2755 101.629 38.7873 98.2964 41.587 96.1729C45.9819 92.8395 52.9435 92.7912 57.1992 89.4625C61.569 86.0445 67.529 85.0721 72.5121 82.5439C78.1395 79.6888 85.2606 77.3848 91.3664 75.9375C98.2828 74.2982 104.014 70.2111 110.719 68.1867C113.503 67.3464 116.409 65.7407 119.199 64.7015C121.685 63.7754 126.273 61.8325 128.127 60.0198C130.484 57.7151 132.522 58.375 135.36 57.4708C137.247 56.8695 138.033 54.6733 139.899 54.0896C141.614 53.5528 143.059 54.1179 144.537 52.7891C148.474 49.2501 185.137 32.468 190.127 30.7331C194.909 28.1206 198.8 24.5235 203.096 21.2657C204.751 20.0104 206.485 20.8947 208.083 20.0172C209.825 19.0615 210.21 16.6168 212.573 16.48C218.862 16.1156 221.825 8.98924 228.284 8.98924C234.792 8.98924 238.965 5.01335 245.393 6.23224C258.79 8.77258 271.547 16.0431 283.501 22.098C295.744 28.2997 306.534 36.3261 318.316 43.4257C329.009 49.8689 338.913 58.3279 349.94 64.2333C379.5 80.0642 389.716 88.1613 411.44 95.1325C431.667 101.623 451.686 109.055 471.844 115.524C489.552 121.206 490 135.917 490 152.769C490 156.145 489.192 159.262 489.102 162.549C489.051 164.433 489.898 168.56 488.703 170.04C486.28 173.04 487.147 179.133 485.96 183.096C484.587 187.677 483.885 190.158 483.715 195.113C483.664 196.619 483.081 200.184 482.269 201.407C479.815 205.103 479.786 208.952 479.276 213.475C478.858 217.178 477.242 221.045 475.834 224.347C475.252 225.713 475.915 227.192 475.186 228.561C474.439 229.962 473.21 231.75 472.892 233.243C472.323 235.909 469.36 240.632 467.355 242.138C464.53 244.259 463.513 248.196 460.172 250.565C452.632 255.912 446.697 261.399 437.228 263.466C427.882 265.506 418.671 266.769 409.246 268.407C404.425 269.245 409.094 275.708 410.992 276.782C415.344 279.247 419.221 282.478 423.661 284.793C434.588 290.491 445.806 295.994 455.883 303" stroke="url(#paint2_angular_20_188)" stroke-width="12" stroke-linecap="round"/>
<path d="M87 46.2685C87 39.1489 87 32.0292 87 24.9095C87 21.5797 87 18.2498 87 14.9199C87 9.71071 87.758 11.2541 92.4639 9.51117C96.4692 8.02774 104.718 7.02756 109.008 7.02756C111.513 7.02756 103.008 7.41519 114.32 7.02756C117.873 5.05369 126.624 6.53084 130.711 6.53084C134.977 6.53084 142.633 4.42348 142.633 9.73193C142.633 16.87 142.633 24.0081 142.633 31.1461C142.633 41.1541 142.633 51.1622 142.633 61.1702" stroke="url(#paint3_linear_20_188)" stroke-width="12" stroke-linecap="round"/>
<path d="M58.5049 224.108H100.229" stroke="url(#paint4_linear_20_188)" stroke-width="15" stroke-linecap="round"/>
<path d="M50 244.993C69.4118 244.993 88.969 244 108.613 244" stroke="url(#paint5_linear_20_188)" stroke-width="15" stroke-linecap="round"/>
<path d="M56.518 264.839C71.445 264.839 86.9787 263.846 102.216 263.846" stroke="url(#paint6_linear_20_188)" stroke-width="15" stroke-linecap="round"/>
<defs>
<radialGradient id="paint0_angular_20_188" cx="0" cy="0" r="1" gradientUnits="userSpaceOnUse" gradientTransform="translate(248 134) rotate(90) scale(58 234)">
<stop stop-color="#EBE9A3" stop-opacity="0.725631"/>
<stop offset="0.249716" stop-color="#B1E542"/>
<stop offset="0.634875" stop-color="#909235" stop-opacity="0.739487"/>
<stop offset="0.95056" stop-color="#C2E33D" stop-opacity="0.71"/>
</radialGradient>
<linearGradient id="paint1_linear_20_188" x1="236.5" y1="187" x2="236.5" y2="319" gradientUnits="userSpaceOnUse">
<stop offset="0.711401" stop-color="#222222"/>
<stop offset="1" stop-color="#353531" stop-opacity="0"/>
</linearGradient>
<radialGradient id="paint2_angular_20_188" cx="0" cy="0" r="1" gradientUnits="userSpaceOnUse" gradientTransform="translate(248 154.5) rotate(90) scale(148.5 242)">
<stop stop-color="#F31F1F" stop-opacity="0.64"/>
<stop offset="0.214191" stop-color="#C60E0E" stop-opacity="0.78"/>
<stop offset="0.41062" stop-color="#FF5019" stop-opacity="0.65"/>
<stop offset="0.600942" stop-color="#D8A41D" stop-opacity="0.52"/>
<stop offset="0.749618" stop-color="#D1EF14" stop-opacity="0.506225"/>
<stop offset="0.893738" stop-color="#4C501B" stop-opacity="0.33"/>
<stop offset="1" stop-color="#C45B5B" stop-opacity="0"/>
<stop offset="1" stop-color="#C45B5B" stop-opacity="0"/>
</radialGradient>
<linearGradient id="paint3_linear_20_188" x1="114.816" y1="6" x2="114.816" y2="61.1702" gradientUnits="userSpaceOnUse">
<stop stop-color="#EF1111" stop-opacity="0.64"/>
<stop offset="1" stop-color="#C45B5B" stop-opacity="0"/>
</linearGradient>
<linearGradient id="paint4_linear_20_188" x1="79.3672" y1="224.108" x2="79.3672" y2="225.108" gradientUnits="userSpaceOnUse">
<stop stop-color="#CE2020" stop-opacity="0.64"/>
<stop offset="1" stop-color="#C45B5B" stop-opacity="0"/>
</linearGradient>
<linearGradient id="paint5_linear_20_188" x1="79.3066" y1="244" x2="79.3066" y2="244.993" gradientUnits="userSpaceOnUse">
<stop stop-color="#EF1111" stop-opacity="0.64"/>
<stop offset="1" stop-color="#C45B5B" stop-opacity="0"/>
</linearGradient>
<linearGradient id="paint6_linear_20_188" x1="79.3672" y1="263.846" x2="79.3672" y2="264.839" gradientUnits="userSpaceOnUse">
<stop stop-color="#EF1111" stop-opacity="0.64"/>
<stop offset="1" stop-color="#C45B5B" stop-opacity="0"/>
</linearGradient>
</defs>
</svg>
